<?xml version="1.0" encoding="UTF-8" standalone="no"?>
<!-- Created with Inkscape (http://www.inkscape.org/) -->


<!--
	Copyright 2009 Enrico Berti (enrico.berti@gmail.com)

	Licensed under the Apache License, Version 2.0 (the "License");
	you may not use this file except in compliance with the License.
	You may obtain a copy of the License at

	    http://www.apache.org/licenses/LICENSE-2.0

	Unless required by applicable law or agreed to in writing, software
	distributed under the License is distributed on an "AS IS" BASIS,
	WITHOUT WARRANTIES OR CONDITIONS OF ANY KIND, either express or implied.
	See the License for the specific language governing permissions and
	limitations under the License.
-->


<svg
   xmlns:svg="http://www.w3.org/2000/svg"
   xmlns="http://www.w3.org/2000/svg"
   version="1.0"
   width="744.09448"
   height="1052.3622"
   id="svg2">
  <defs
     id="defs4" />
  <g
     id="layer2">
    <rect
       width="353.41953"
       height="113.1084"
       ry="11"
       x="182.23015"
       y="381.33292"
       id="rect2484"
       style="fill:#ffffff;fill-opacity:1;stroke:#66666f;stroke-width:0.80188262;stroke-opacity:0.94117647" />
  </g>
  <g
     id="layer1">
    <path
       d="M 107.1875,393.56638 L 122.30469,393.56638 L 177.5,467.39451 L 162.38281,467.39451 L 107.1875,393.56638 M 122.30469,467.39451 L 107.1875,467.39451 L 162.38281,393.56638 L 177.5,393.56638 L 122.30469,467.39451 M 185.9375,381.61326 L 194.09375,381.61326 L 196.90625,393.56638 L 214.0625,393.56638 L 214.0625,404.11326 L 198.94531,404.11326 L 198.94531,446.51169 C 198.9453,453.40233 201.92186,456.84764 207.875,456.84763 L 214.0625,456.84763 L 214.0625,467.39451 L 204.5,467.39451 C 192.12499,467.39451 185.9375,460.7617 185.9375,447.49607 L 185.9375,381.61326"
       transform="translate(147.52173,19.291922)"
       id="flowRoot2461"
       style="font-size:40px;font-style:normal;font-variant:normal;font-weight:normal;font-stretch:normal;fill:#666666;fill-opacity:1;stroke:none;stroke-width:1px;stroke-linecap:butt;stroke-linejoin:miter;stroke-opacity:1;font-family:Sansation;-inkscape-font-specification:Sansation" />
    <path
       d="M 484.15625,337.9375 C 479.95007,341.18105 476.90861,345.60121 473.71875,349.78125 C 466.07192,360.15902 458.35347,370.48461 450.83739,380.95796 C 440.98123,394.44873 431.29593,408.06449 421.83298,421.83413 C 413.65007,433.72799 405.45568,445.61412 397.35857,457.56666 C 396.7446,458.33309 396.35119,459.30427 395.59375,459.9375 C 394.78303,460.50627 393.39697,460.07425 393.30995,459.00785 C 390.05782,441.64514 386.77256,424.28865 383.39742,406.94938 C 382.026,399.77422 380.62643,392.60344 379.06866,385.46625 C 378.33302,382.12924 377.55764,378.78854 376.4556,375.55233 C 376.08189,374.69373 375.92846,373.48739 374.86152,373.21336 C 373.90945,372.77359 372.87113,373.35054 372.36123,374.17909 C 371.41481,375.55691 370.61571,377.05798 370.16263,378.67398 C 369.15946,381.70019 368.85097,384.90492 368.73445,388.07481 C 368.66876,392.77417 369.40888,397.43369 370.12162,402.06479 C 371.94518,413.33393 374.32417,424.50373 376.17486,435.76813 C 376.86055,439.57107 377.50297,443.3833 377.91973,447.22669 C 378.45818,452.18708 378.57847,457.18279 378.625,462.16873 C 378.64893,470.73709 378.05038,479.30085 378.26439,487.86974 C 378.50699,491.06515 378.94369,494.39429 380.63676,497.18155 C 381.71818,498.9161 383.5747,500.25786 385.67117,500.29965 C 387.79584,500.34803 389.89704,499.55975 391.63354,498.37083 C 392.98011,497.34428 394.10044,496.02367 394.99889,494.59172 C 396.49831,492.05246 398.06307,489.53913 399.23028,486.82797 C 400.61353,483.72883 401.96472,480.614 403.17026,477.43989 C 404.79338,473.21645 406.42567,468.99012 408.44074,464.9342 C 411.77791,457.85251 415.34266,450.88011 419.0082,443.96362 C 421.05061,440.13042 423.20921,436.35631 425.55865,432.70293 C 428.40254,428.51347 431.41661,424.44318 434.42912,420.37465 C 440.2865,412.57456 446.33367,404.91964 452.23691,397.15447 C 456.97879,390.98615 461.75235,384.84071 466.39317,378.59587 C 469.35373,374.59166 472.22163,370.51632 474.94293,366.34568 C 477.84406,361.76847 480.52757,357.03505 482.67429,352.05405 C 484.07993,348.67379 485.27036,345.139 485.44273,341.45279 C 485.45991,340.53419 485.55823,339.58269 485.3125,338.6875 C 485.11783,338.23359 484.70246,337.78109 484.15625,337.9375 z"
       id="text2475"
       style="font-size:49.32169342px;font-style:normal;font-variant:normal;font-weight:normal;font-stretch:normal;fill:#99cc00;fill-opacity:1;stroke:none;stroke-width:1px;stroke-linecap:butt;stroke-linejoin:miter;stroke-opacity:1;font-family:Sansation;-inkscape-font-specification:Sansation" />
    <path
       d="M 142.55469,393.56638 C 165.14838,393.56646 174.26556,407.11332 169.90625,434.20701 L 120.19531,434.20701 C 120.1953,449.30077 129.71091,456.84764 148.74219,456.84763 C 155.25776,456.84764 161.77338,456.14452 168.28906,454.73826 L 168.28906,465.28513 C 161.77338,466.69138 153.85152,467.39451 144.52344,467.39451 C 119.6328,467.39451 107.1875,454.80858 107.1875,429.63669 C 107.1875,405.58988 118.97655,393.56646 142.55469,393.56638 M 120.19531,423.37888 L 158.02344,423.37888 C 158.67964,410.44144 152.82027,403.97269 140.44531,403.97263 C 127.78904,403.97269 121.03905,410.44144 120.19531,423.37888"
       transform="translate(81.0425,19.291676)"
       id="flowRoot4783"
       style="font-size:40px;font-style:normal;font-variant:normal;font-weight:normal;font-stretch:normal;fill:#666666;fill-opacity:1;stroke:none;stroke-width:1px;stroke-linecap:butt;stroke-linejoin:miter;stroke-opacity:1;font-family:Sansation;-inkscape-font-specification:Sansation" />
    <path
       d="M 107.1875,444.40232 C 107.1875,429.26173 117.17187,421.69143 137.14062,421.69138 C 144.49996,421.69143 150.92183,422.16018 156.40625,423.09763 L 156.40625,416.13669 C 156.4062,408.12113 149.77339,404.11332 136.50781,404.11326 C 128.91404,404.11332 121.1328,405.28519 113.16406,407.62888 L 113.16406,397.08201 C 121.1328,394.73833 128.91404,393.56646 136.50781,393.56638 C 158.44526,393.56646 169.414,401.44145 169.41406,417.19138 L 169.41406,467.39451 L 162.80469,467.39451 L 157.60156,462.19138 C 151.17964,465.66013 143.63278,467.39451 134.96094,467.39451 C 116.4453,467.39451 107.1875,459.73045 107.1875,444.40232 M 156.40625,433.64451 C 151.24996,432.70704 144.82809,432.23829 137.14062,432.23826 C 125.84373,432.23829 120.1953,436.22266 120.19531,444.19138 C 120.1953,452.6289 125.11717,456.84764 134.96094,456.84763 C 143.9609,456.84764 151.10933,454.92577 156.40625,451.08201 L 156.40625,433.64451"
       transform="matrix(1.000002,0,0,1,329.73829,19.291676)"
       id="flowRoot4807"
       style="font-size:40px;font-style:normal;font-variant:normal;font-weight:normal;font-stretch:normal;fill:#666666;fill-opacity:1;stroke:none;stroke-width:1px;stroke-linecap:butt;stroke-linejoin:miter;stroke-opacity:1;font-family:Sansation;-inkscape-font-specification:Sansation" />
    <path
       d="M 107.1875,366.84763 L 107.1875,467.39451 L 120.19531,467.39451 L 120.19531,366.84763 L 107.1875,366.84763"
       transform="matrix(1.000002,0,0,1,403.79929,19.291676)"
       id="flowRoot4819"
       style="font-size:40px;font-style:normal;font-variant:normal;font-weight:normal;font-stretch:normal;fill:#666666;fill-opacity:1;stroke:none;stroke-width:1px;stroke-linecap:butt;stroke-linejoin:miter;stroke-opacity:1;font-family:Sansation;-inkscape-font-specification:Sansation" />
  </g>
  <g
     id="layer3">
    <rect
       width="11.891597"
       height="12.806335"
       x="333.57455"
       y="400.87384"
       id="rect4695"
       style="fill:#666666;fill-opacity:1;stroke:none;stroke-opacity:1" />
    <rect
       width="15.071473"
       height="20.124157"
       ry="0.31444132"
       x="281.89182"
       y="439.79248"
       id="rect4697"
       style="fill:#666666;fill-opacity:1;stroke:none;stroke-opacity:1" />
    <rect
       width="11.891597"
       height="10.530645"
       x="327.69699"
       y="412.87155"
       id="rect4891"
       style="fill:#666666;fill-opacity:1;stroke:none;stroke-opacity:1" />
  </g>
</svg>
